<svg version="1.1" id="Layer_1" xmlns="http://www.w3.org/2000/svg" xmlns:xlink="http://www.w3.org/1999/xlink" x="0px" y="0px"
	 width="100%" viewBox="0 0 638 391" enable-background="new 0 0 638 391" xml:space="preserve">
<path fill="#F6F7F6" opacity="1.000000" stroke="none" 
	d="
M466.000000,392.000000 
	C310.704254,392.000000 155.908508,392.000000 1.056383,392.000000 
	C1.056383,261.735931 1.056383,131.471802 1.056383,1.103845 
	C213.545776,1.103845 426.091614,1.103845 638.818726,1.103845 
	C638.818726,131.333130 638.818726,261.666534 638.818726,392.000000 
	C581.471741,392.000000 523.985901,392.000000 466.000000,392.000000 
M224.219421,175.419708 
	C217.828674,169.813080 211.437943,164.206467 205.062592,158.613342 
	C204.815414,158.794037 205.570511,158.218811 206.348618,157.676605 
	C228.859390,141.989944 228.713974,113.425346 205.728256,98.948280 
	C195.196915,92.315323 183.009689,90.312096 170.801682,90.153061 
	C143.814255,89.801491 116.819153,90.034447 89.827187,90.046432 
	C88.377495,90.047081 86.927879,90.208366 85.214493,90.310608 
	C85.126892,92.235619 84.988190,93.863014 84.988373,95.490395 
	C84.991562,123.648613 85.123283,151.807648 84.913338,179.964188 
	C84.880196,184.407013 86.411125,187.545990 89.246506,190.571198 
	C96.707008,198.531235 105.932281,203.794388 115.907722,207.718353 
	C139.188950,216.876373 163.508133,218.868790 188.104477,216.341675 
	C199.776596,215.142441 211.242416,211.898895 222.786057,209.506027 
	C226.510712,208.733932 228.593094,206.722382 229.255066,202.538239 
	C230.752625,193.072327 229.283600,184.329269 224.219421,175.419708 
M552.381348,135.180603 
	C551.097595,131.955566 549.812500,128.731079 548.530334,125.505394 
	C546.772888,121.083908 543.686584,119.607010 538.833069,119.830460 
	C514.401550,120.955215 489.909821,121.129852 465.530823,122.899330 
	C451.684418,123.904335 438.036407,127.477875 424.253021,129.594574 
	C418.519745,130.475052 417.177063,133.357590 417.221893,138.887390 
	C417.483734,171.192719 417.346069,203.501297 417.343323,235.808777 
	C417.343140,237.899521 417.343323,239.990265 417.343323,242.135986 
	C434.330688,242.135986 450.544464,242.135986 467.308899,242.135986 
	C467.308899,230.222488 467.308899,218.656387 467.308899,206.811295 
	C472.350006,206.811295 476.858185,207.082047 481.322723,206.755829 
	C491.086365,206.042389 500.980408,205.812759 510.544525,203.958344 
	C527.045593,200.758911 540.600708,192.270416 548.688171,177.110367 
	C555.610168,164.134872 556.945923,150.215469 552.381348,135.180603 
M247.189911,185.488785 
	C247.189911,190.021317 247.189911,194.553848 247.189911,199.209091 
	C248.752304,199.029251 249.313538,199.112335 249.714798,198.897141 
	C264.335693,191.054932 278.987793,183.267593 293.477722,175.189514 
	C294.908417,174.391907 296.041412,171.815979 296.104095,170.023163 
	C296.383331,162.039185 296.222626,154.039825 296.221710,146.046036 
	C296.221039,140.268997 296.221558,134.491959 296.221558,128.205826 
	C316.060120,128.415268 336.073212,124.387077 348.634521,144.757065 
	C363.232880,138.088608 377.623596,131.514999 392.178864,124.866219 
	C390.997925,122.964005 390.199890,121.503120 389.229492,120.167473 
	C388.354248,118.962753 387.293091,117.892700 386.309265,116.767334 
	C370.218536,98.360985 349.004669,90.993584 325.504944,90.210670 
	C301.050934,89.395966 276.548676,90.024681 252.067520,90.044098 
	C250.623459,90.045250 249.179565,90.241264 247.191360,90.386299 
	C247.191360,121.960625 247.191360,153.226959 247.189911,185.488785 
M373.721771,148.192535 
	C368.294708,150.708008 362.931335,153.375336 357.419373,155.688538 
	C353.375153,157.385788 350.773193,159.305099 351.988403,164.459763 
	C352.732605,167.616577 352.398682,171.118729 352.076019,174.419556 
	C350.890015,186.551544 345.389587,196.080170 333.929932,201.010712 
	C321.893341,206.189499 309.144775,203.622681 296.051086,204.119080 
	C296.051086,198.975250 296.051086,194.619095 296.051086,190.320435 
	C280.235931,198.353973 264.857544,206.120712 249.555405,214.034912 
	C248.480026,214.591095 247.325104,216.221313 247.297440,217.378189 
	C247.102768,225.516647 247.194168,233.661942 247.194168,242.462341 
	C249.344345,242.462341 251.126770,242.461639 252.909195,242.462463 
	C273.241943,242.471954 293.575348,242.387680 313.907196,242.525406 
	C326.795746,242.612701 339.570618,241.795715 351.894012,237.823334 
	C371.721283,231.432129 387.159088,219.633133 396.030975,200.334335 
	C403.204376,184.730103 402.973267,168.310425 400.415039,151.826462 
	C399.723419,147.370178 397.706726,143.119522 396.183624,138.420883 
	C388.328888,141.787979 381.341736,144.783188 373.721771,148.192535 
M185.289581,231.156219 
	C177.294510,231.233627 169.277832,231.724487 161.308578,231.307999 
	C140.533234,230.222214 120.336327,226.375732 101.891632,216.195312 
	C96.065231,212.979431 90.787582,208.769333 85.311798,205.050247 
	C85.311798,217.371246 85.311798,229.756592 85.311798,242.490997 
	C86.622612,242.490997 87.599831,242.491028 88.577049,242.490982 
	C115.742622,242.489807 142.910553,242.688446 170.072342,242.367172 
	C178.351639,242.269226 186.702744,241.226624 194.860977,239.739136 
	C204.402649,237.999420 212.943008,233.791611 220.137375,226.220291 
	C208.447662,227.893860 197.340881,229.483978 185.289581,231.156219 
M456.826935,109.085663 
	C483.281708,107.619179 509.736481,106.152702 536.046448,104.694252 
	C535.835938,104.470741 535.356506,103.803375 534.733032,103.322906 
	C522.628235,93.994415 508.419495,90.525887 493.648621,90.172569 
	C469.855011,89.603432 446.038086,90.005661 422.230988,90.018005 
	C420.784149,90.018753 419.337372,90.198997 417.813843,90.300858 
	C417.813843,99.260880 417.813843,107.899712 417.813843,116.293121 
	C430.827362,113.867332 443.384583,111.526596 456.826935,109.085663 
M152.902527,278.259491 
	C156.407745,271.144196 154.920898,266.018616 148.735809,265.247070 
	C144.381378,264.703888 139.904556,265.142090 135.356842,265.142090 
	C135.356842,274.580383 135.356842,283.611847 135.356842,292.957397 
	C139.841187,292.957397 143.971588,292.918213 148.100906,292.968689 
	C152.064117,293.017120 154.904099,291.064636 156.287506,287.602966 
	C157.663254,284.160400 156.452499,281.086426 152.902527,278.259491 
M84.967720,267.699738 
	C84.967720,275.980042 84.967720,284.260315 84.967720,293.002869 
	C88.894196,293.002869 92.352882,292.919891 95.805962,293.023651 
	C100.221367,293.156281 104.867142,292.604126 105.952507,287.830933 
	C106.667412,284.686890 104.918495,280.982605 104.008286,276.114319 
	C107.253319,270.902222 104.684471,265.537994 96.816582,264.999969 
	C93.831482,264.795837 90.813843,264.756409 87.833771,264.965698 
	C86.848557,265.034882 85.934639,266.119171 84.967720,267.699738 
M412.000519,281.820526 
	C417.605560,283.797882 413.584076,289.449219 416.225647,292.770325 
	C417.887390,292.770325 419.659546,292.770325 421.827606,292.770325 
	C420.749756,287.989197 419.746643,283.539551 418.877014,279.682068 
	C419.257477,276.052917 420.887848,272.028381 419.591766,269.509857 
	C418.380035,267.155273 414.197388,265.825378 411.076843,265.098663 
	C407.940063,264.368195 404.500458,264.937988 400.922211,264.937988 
	C400.922211,274.398010 400.922211,283.490692 400.922211,292.626373 
	C402.797058,292.626373 404.504395,292.626373 406.705292,292.626373 
	C406.705292,288.833130 406.705292,285.403564 406.705292,281.597565 
	C408.497009,281.597565 409.795410,281.597565 412.000519,281.820526 
M187.811508,265.129028 
	C183.576523,265.129028 179.341553,265.129028 175.112518,265.129028 
	C175.112518,274.635620 175.112518,283.563049 175.112518,293.980713 
	C181.176422,292.836182 187.655579,293.262695 192.031998,290.434875 
	C200.465073,284.985901 197.900467,269.539001 187.811508,265.129028 
M466.816498,269.218079 
	C469.285553,270.810486 470.271393,275.922363 474.805145,272.760284 
	C474.860229,272.266083 475.003174,271.909760 474.916656,271.622528 
	C473.232635,266.030701 469.623260,263.912628 462.943787,264.566223 
	C457.169891,265.131226 453.432098,268.552277 453.055267,273.864197 
	C452.855713,276.677277 453.056335,279.516296 452.963348,282.339905 
	C452.809540,287.012054 454.816223,290.912842 459.034485,292.221161 
	C463.835114,293.710052 469.231812,294.589783 473.616882,290.585907 
	C474.583466,289.703339 475.302582,288.150208 475.434052,286.835663 
	C475.709290,284.083954 475.517517,281.285522 475.517517,278.163818 
	C471.907684,278.163818 468.931274,278.055542 465.973999,278.245575 
	C465.297180,278.289093 464.238800,279.316528 464.174225,279.971832 
	C464.112549,280.596924 464.986847,281.648071 465.686279,281.934723 
	C466.689026,282.345612 467.906616,282.232422 469.139832,282.353516 
	C469.671906,285.397400 470.609070,288.364868 466.256927,288.922028 
	C462.423035,289.412903 459.573212,288.069763 459.088379,283.940186 
	C458.741547,280.986176 458.855194,277.961121 458.961884,274.974823 
	C459.122833,270.468964 461.366943,268.232269 466.816498,269.218079 
M269.717072,264.876221 
	C268.338593,265.585388 265.786163,266.255737 265.761261,267.009644 
	C265.478210,275.568604 265.581604,284.140320 265.581604,292.948578 
	C269.530548,292.948578 272.841736,293.035492 276.146667,292.928955 
	C281.622162,292.752472 285.573486,290.147186 286.602417,284.788818 
	C287.357300,280.857819 287.154999,276.528107 286.378540,272.572510 
	C285.412292,267.650177 281.680206,265.164673 276.624512,264.943542 
	C274.635132,264.856506 272.640259,264.895691 269.717072,264.876221 
M238.525650,289.016327 
	C236.844666,288.154510 235.156967,287.305481 233.484634,286.427185 
	C231.870026,285.579224 230.271286,284.701050 228.039963,283.499207 
	C227.632660,289.354889 230.118317,291.724945 233.686050,292.680481 
	C236.179962,293.348450 238.959808,293.035553 241.610565,293.011078 
	C245.727417,292.973083 248.125351,290.538147 248.876526,286.783020 
	C249.605881,283.136932 247.943604,280.266602 244.578445,278.639465 
	C242.350143,277.562042 239.835281,277.018311 237.731415,275.762177 
	C236.204468,274.850494 234.985901,273.261200 234.016174,271.729462 
	C233.846481,271.461426 235.600601,269.207611 236.448456,269.218781 
	C238.377319,269.244202 240.371445,269.922913 242.196884,270.679291 
	C244.189880,271.505066 246.022552,272.717834 249.000107,274.351898 
	C246.921219,264.965057 236.984329,261.638336 230.995361,266.562622 
	C226.827698,269.989380 226.939529,275.308014 231.565842,278.203949 
	C234.050186,279.759064 237.156387,280.300507 239.714355,281.766327 
	C241.127655,282.576263 242.772903,284.312592 242.840378,285.702820 
	C242.890915,286.744202 240.588882,287.899780 238.525650,289.016327 
M503.719482,282.140930 
	C503.719482,276.527374 503.719482,270.913818 503.719482,265.111450 
	C501.531769,265.111450 499.947021,265.111450 497.832001,265.111450 
	C497.832001,270.949280 497.826019,276.561707 497.834106,282.174133 
	C497.839447,285.873230 496.942108,288.930664 492.456238,288.973328 
	C487.778381,289.017853 486.714417,286.016327 486.776062,282.017975 
	C486.862427,276.417236 486.797852,270.814117 486.797852,265.166443 
	C484.547638,265.166443 482.966919,265.166443 480.920685,265.166443 
	C480.920685,270.911102 480.928589,276.366608 480.918732,281.822113 
	C480.905731,289.009094 483.886261,292.707886 489.977448,293.038757 
	C499.770813,293.570709 502.939575,291.264282 503.719482,282.140930 
M523.990723,268.444885 
	C523.181702,266.051666 521.822449,263.958008 519.034119,264.992523 
	C517.539124,265.547180 516.023926,267.170776 515.382690,268.679565 
	C513.832458,272.327057 512.795044,276.192047 511.541626,279.966278 
	C510.163879,284.114807 508.775757,288.259857 507.294769,292.698120 
	C509.863190,292.698120 511.594330,292.698120 513.455627,292.698120 
	C513.778748,291.310089 513.680298,289.794952 514.378540,289.169922 
	C515.536865,288.132996 517.224609,287.066803 518.658508,287.107269 
	C520.689758,287.164673 524.284485,287.948395 524.442200,288.887115 
	C525.283936,293.895355 528.241394,293.280670 531.853760,292.605530 
	C529.258484,284.637207 526.746094,276.923431 523.990723,268.444885 
M388.832977,269.554443 
	C387.734680,267.613708 388.217926,264.614105 384.347656,264.741486 
	C380.553558,264.866333 380.274170,267.462189 379.455322,269.898407 
	C376.934753,277.397552 374.454224,284.910095 371.899750,292.593048 
	C375.494720,293.314453 378.453125,293.740112 379.234009,289.111115 
	C379.376923,288.263855 380.919769,287.165588 381.926849,287.034973 
	C386.461212,286.446899 390.829163,286.490448 390.411285,293.064697 
	C392.753906,292.947784 394.362671,292.867493 396.525635,292.759521 
	C393.961945,284.977722 391.544312,277.639282 388.832977,269.554443 
M429.352112,292.993744 
	C430.229889,291.830750 430.933960,290.455139 432.030212,289.559570 
	C433.347870,288.483124 434.959442,287.218933 436.515747,287.115051 
	C438.661163,286.971954 441.997040,285.525238 442.589172,289.339935 
	C443.346954,294.221527 446.317841,293.128479 449.523560,292.612518 
	C448.716949,290.063904 448.036499,287.850891 447.316376,285.650848 
	C445.358704,279.670258 443.540558,273.635345 441.293213,267.765106 
	C440.805023,266.489929 438.858551,265.356415 437.386810,265.020660 
	C436.403137,264.796234 434.353210,265.830322 434.007233,266.758514 
	C430.851013,275.225403 427.964264,283.792755 424.867035,292.710083 
	C426.591797,292.846893 427.566559,292.924194 429.352112,292.993744 
M206.386230,289.948395 
	C207.264816,285.821930 210.610352,286.790100 213.147049,287.102722 
	C214.655640,287.288635 216.788193,288.643219 217.245529,289.957672 
	C218.609482,293.877930 221.197037,293.173340 224.425964,292.532196 
	C221.880035,285.045776 219.071960,277.796631 217.006607,270.341705 
	C215.744064,265.784546 213.871826,263.620880 208.833664,265.400452 
	C205.923279,274.293396 202.968979,283.320496 200.014664,292.347595 
	C200.434326,292.800171 200.854004,293.252747 201.273666,293.705322 
	C202.900818,292.723083 204.527985,291.740875 206.386230,289.948395 
M350.956055,284.444153 
	C350.956055,287.207672 350.956055,289.971222 350.956055,293.067352 
	C353.232849,292.941681 354.810791,292.854584 356.924591,292.737915 
	C356.924591,289.344543 356.924591,286.288940 356.924591,283.517456 
	C360.577820,282.858124 363.721130,282.570312 366.688141,281.689087 
	C371.010101,280.405396 372.394440,277.009735 372.135010,272.751862 
	C371.873474,268.460083 369.241272,265.783752 365.404480,265.283264 
	C360.741272,264.674988 355.938202,265.138794 350.954163,265.138794 
	C350.954163,271.524231 350.954163,277.490631 350.956055,284.444153 
M293.066895,282.472900 
	C293.066895,285.890930 293.066895,289.308990 293.066895,292.756592 
	C299.407196,292.756592 305.004639,292.756592 310.866608,292.756592 
	C310.866608,291.547089 310.991119,289.784149 310.848450,289.762268 
	C307.021576,289.174988 303.167267,288.766541 299.221283,288.316895 
	C299.221283,285.863708 299.221283,283.604523 299.221283,280.829956 
	C302.550903,280.829956 305.623413,280.829956 309.192047,280.829956 
	C309.078125,278.942169 308.997253,277.602020 308.917511,276.281006 
	C305.302856,276.113342 302.213013,275.970032 298.880615,275.815460 
	C299.022644,273.362244 299.133545,271.446594 299.268799,269.110840 
	C303.303589,269.110840 306.898529,269.110840 310.493439,269.110840 
	C310.828339,268.706360 311.163208,268.301880 311.498077,267.897400 
	C310.588501,266.890320 309.725830,265.068024 308.761475,265.012573 
	C303.693542,264.721008 298.599915,264.876129 293.054352,264.876129 
	C293.054352,270.899811 293.054352,276.190186 293.066895,282.472900 
M125.318680,293.014709 
	C126.773354,292.932587 128.228027,292.850464 130.754730,292.707794 
	C127.679810,285.990417 121.635574,290.645203 118.066238,288.076996 
	C118.066238,285.863403 118.066238,283.488617 118.066238,280.661011 
	C121.544243,280.661011 124.639267,280.661011 128.180283,280.661011 
	C127.627457,272.394409 120.767250,278.430969 118.040535,274.960602 
	C118.040535,273.539520 118.040535,271.514221 118.040535,269.123596 
	C121.525795,269.123596 124.668907,269.253510 127.786934,269.031433 
	C128.557785,268.976532 129.803345,267.792847 129.821320,267.101807 
	C129.840179,266.376740 128.667618,264.999847 127.978813,264.976044 
	C122.754395,264.795563 117.520927,264.877319 112.270844,264.877319 
	C112.270844,274.655853 112.270844,283.563782 112.270844,293.014771 
	C116.470947,293.014771 120.414314,293.014771 125.318680,293.014709 
M543.312927,275.518280 
	C542.642761,275.594604 541.481567,275.916595 541.377991,275.709473 
	C540.269470,273.493896 539.367798,271.176514 538.331726,268.922729 
	C536.870850,265.745026 534.835144,263.643372 530.506714,265.537048 
	C533.696289,274.447479 541.766602,281.858398 538.803162,292.599121 
	C541.332214,292.599121 543.019043,292.599121 545.184387,292.599121 
	C542.802490,281.594635 551.102356,274.486633 553.983582,265.336548 
	C550.481628,264.294525 547.883362,264.480408 546.677307,268.621063 
	C546.039734,270.809937 544.656677,272.781616 543.312927,275.518280 
M321.978058,283.343384 
	C321.978058,277.283508 321.978058,271.223663 321.978058,264.744843 
	C319.660095,264.908051 318.094513,265.018280 316.650299,265.119965 
	C316.650299,274.657288 316.650299,283.706085 316.650299,292.782013 
	C322.956604,292.782013 328.874084,292.782013 334.840363,292.782013 
	C334.840363,291.432648 334.840363,290.329254 334.840363,288.836914 
	C331.837677,288.836914 329.024811,288.630554 326.255096,288.888123 
	C322.626434,289.225525 321.482452,287.621307 321.978058,283.343384 
M162.012955,282.473511 
	C162.012955,285.899719 162.012955,289.325958 162.012955,292.770569 
	C164.251038,292.770569 165.848511,292.770569 167.666718,292.770569 
	C167.666718,283.490997 167.666718,274.446381 167.666718,265.246643 
	C165.709869,265.246643 164.027679,265.246643 162.013565,265.246643 
	C162.013565,270.905548 162.013565,276.193024 162.012955,282.473511 
z"/>
<path fill="#63A833" opacity="1.000000" stroke="none" 
	d="
M224.401978,175.737381 
	C229.283600,184.329269 230.752625,193.072327 229.255066,202.538239 
	C228.593094,206.722382 226.510712,208.733932 222.786057,209.506027 
	C211.242416,211.898895 199.776596,215.142441 188.104477,216.341675 
	C163.508133,218.868790 139.188950,216.876373 115.907722,207.718353 
	C105.932281,203.794388 96.707008,198.531235 89.246506,190.571198 
	C86.411125,187.545990 84.880196,184.407013 84.913338,179.964188 
	C85.123283,151.807648 84.991562,123.648613 84.988373,95.490395 
	C84.988190,93.863014 85.126892,92.235619 85.214493,90.310608 
	C86.927879,90.208366 88.377495,90.047081 89.827187,90.046432 
	C116.819153,90.034447 143.814255,89.801491 170.801682,90.153061 
	C183.009689,90.312096 195.196915,92.315323 205.728256,98.948280 
	C228.713974,113.425346 228.859390,141.989944 206.348618,157.676605 
	C205.570511,158.218811 204.815414,158.794037 205.062592,158.613342 
	C211.437943,164.206467 217.828674,169.813080 224.401978,175.737381 
M178.824249,195.046173 
	C181.617401,186.599380 178.956711,180.221573 170.529160,179.486221 
	C158.577637,178.443420 146.467224,179.221619 134.341827,179.221619 
	C134.341827,186.413406 134.341827,193.788513 134.341827,201.370270 
	C145.945511,201.370270 157.216232,201.802628 168.417847,201.112762 
	C171.879715,200.899551 175.153427,197.630997 178.824249,195.046173 
M161.653885,124.767174 
	C152.585495,124.767174 143.517120,124.767174 134.391922,124.767174 
	C134.391922,131.872665 134.391922,138.742645 134.391922,145.411118 
	C144.213837,145.411118 153.681931,145.976379 163.045364,145.229584 
	C170.338577,144.647888 173.154907,140.783600 172.936523,134.626083 
	C172.730179,128.807968 169.596100,125.888924 161.653885,124.767174 
z"/>
<path fill="#255B43" opacity="1.000000" stroke="none" 
	d="
M552.493774,135.570877 
	C556.945923,150.215469 555.610168,164.134872 548.688171,177.110367 
	C540.600708,192.270416 527.045593,200.758911 510.544525,203.958344 
	C500.980408,205.812759 491.086365,206.042389 481.322723,206.755829 
	C476.858185,207.082047 472.350006,206.811295 467.308899,206.811295 
	C467.308899,218.656387 467.308899,230.222488 467.308899,242.135986 
	C450.544464,242.135986 434.330688,242.135986 417.343323,242.135986 
	C417.343323,239.990265 417.343140,237.899521 417.343323,235.808777 
	C417.346069,203.501297 417.483734,171.192719 417.221893,138.887390 
	C417.177063,133.357590 418.519745,130.475052 424.253021,129.594574 
	C438.036407,127.477875 451.684418,123.904335 465.530823,122.899330 
	C489.909821,121.129852 514.401550,120.955215 538.833069,119.830460 
	C543.686584,119.607010 546.772888,121.083908 548.530334,125.505394 
	C549.812500,128.731079 551.097595,131.955566 552.493774,135.570877 
M482.411957,169.014938 
	C487.093292,168.143509 491.987030,167.858261 496.403992,166.257401 
	C502.385956,164.089310 505.562469,157.408264 505.053955,150.284134 
	C504.592957,143.825577 500.379395,137.041138 494.952026,136.229019 
	C485.870789,134.870193 476.641602,134.499847 467.299255,133.698425 
	C467.299255,146.207108 467.299255,157.417999 467.299255,169.014236 
	C472.196106,169.014236 476.816864,169.014236 482.411957,169.014938 
z"/>
<path fill="#63A834" opacity="1.000000" stroke="none" 
	d="
M247.190643,184.991028 
	C247.191360,153.226959 247.191360,121.960625 247.191360,90.386299 
	C249.179565,90.241264 250.623459,90.045250 252.067520,90.044098 
	C276.548676,90.024681 301.050934,89.395966 325.504944,90.210670 
	C349.004669,90.993584 370.218536,98.360985 386.309265,116.767334 
	C387.293091,117.892700 388.354248,118.962753 389.229492,120.167473 
	C390.199890,121.503120 390.997925,122.964005 392.178864,124.866219 
	C377.623596,131.514999 363.232880,138.088608 348.634521,144.757065 
	C336.073212,124.387077 316.060120,128.415268 296.221558,128.205826 
	C296.221558,134.491959 296.221039,140.268997 296.221710,146.046036 
	C296.222626,154.039825 296.383331,162.039185 296.104095,170.023163 
	C296.041412,171.815979 294.908417,174.391907 293.477722,175.189514 
	C278.987793,183.267593 264.335693,191.054932 249.714798,198.897141 
	C249.313538,199.112335 248.752304,199.029251 247.189911,199.209091 
	C247.189911,194.553848 247.189911,190.021317 247.190643,184.991028 
z"/>
<path fill="#255B43" opacity="1.000000" stroke="none" 
	d="
M374.038177,147.985474 
	C381.341736,144.783188 388.328888,141.787979 396.183624,138.420883 
	C397.706726,143.119522 399.723419,147.370178 400.415039,151.826462 
	C402.973267,168.310425 403.204376,184.730103 396.030975,200.334335 
	C387.159088,219.633133 371.721283,231.432129 351.894012,237.823334 
	C339.570618,241.795715 326.795746,242.612701 313.907196,242.525406 
	C293.575348,242.387680 273.241943,242.471954 252.909195,242.462463 
	C251.126770,242.461639 249.344345,242.462341 247.194168,242.462341 
	C247.194168,233.661942 247.102768,225.516647 247.297440,217.378189 
	C247.325104,216.221313 248.480026,214.591095 249.555405,214.034912 
	C264.857544,206.120712 280.235931,198.353973 296.051086,190.320435 
	C296.051086,194.619095 296.051086,198.975250 296.051086,204.119080 
	C309.144775,203.622681 321.893341,206.189499 333.929932,201.010712 
	C345.389587,196.080170 350.890015,186.551544 352.076019,174.419556 
	C352.398682,171.118729 352.732605,167.616577 351.988403,164.459763 
	C350.773193,159.305099 353.375153,157.385788 357.419373,155.688538 
	C362.931335,153.375336 368.294708,150.708008 374.038177,147.985474 
z"/>
<path fill="#285B44" opacity="1.000000" stroke="none" 
	d="
M185.761841,231.115143 
	C197.340881,229.483978 208.447662,227.893860 220.137375,226.220291 
	C212.943008,233.791611 204.402649,237.999420 194.860977,239.739136 
	C186.702744,241.226624 178.351639,242.269226 170.072342,242.367172 
	C142.910553,242.688446 115.742622,242.489807 88.577049,242.490982 
	C87.599831,242.491028 86.622612,242.490997 85.311798,242.490997 
	C85.311798,229.756592 85.311798,217.371246 85.311798,205.050247 
	C90.787582,208.769333 96.065231,212.979431 101.891632,216.195312 
	C120.336327,226.375732 140.533234,230.222214 161.308578,231.307999 
	C169.277832,231.724487 177.294510,231.233627 185.761841,231.115143 
z"/>
<path fill="#66A739" opacity="1.000000" stroke="none" 
	d="
M456.384369,109.135765 
	C443.384583,111.526596 430.827362,113.867332 417.813843,116.293121 
	C417.813843,107.899712 417.813843,99.260880 417.813843,90.300858 
	C419.337372,90.198997 420.784149,90.018753 422.230988,90.018005 
	C446.038086,90.005661 469.855011,89.603432 493.648621,90.172569 
	C508.419495,90.525887 522.628235,93.994415 534.733032,103.322906 
	C535.356506,103.803375 535.835938,104.470741 536.046448,104.694252 
	C509.736481,106.152702 483.281708,107.619179 456.384369,109.135765 
z"/>
<path fill="#38624F" opacity="1.000000" stroke="none" 
	d="
M153.142853,278.565521 
	C156.452499,281.086426 157.663254,284.160400 156.287506,287.602966 
	C154.904099,291.064636 152.064117,293.017120 148.100906,292.968689 
	C143.971588,292.918213 139.841187,292.957397 135.356842,292.957397 
	C135.356842,283.611847 135.356842,274.580383 135.356842,265.142090 
	C139.904556,265.142090 144.381378,264.703888 148.735809,265.247070 
	C154.920898,266.018616 156.407745,271.144196 153.142853,278.565521 
M140.883026,284.429810 
	C141.002502,285.848083 141.121994,287.266388 141.249207,288.776398 
	C145.236603,288.621185 149.552078,290.224243 150.722427,285.155243 
	C150.991257,283.990936 148.865784,281.058777 147.833954,281.054749 
	C145.471176,281.045532 141.506454,278.227020 140.883026,284.429810 
M141.029770,275.359497 
	C142.406128,275.664368 143.961288,276.516632 145.114960,276.139801 
	C146.662537,275.634308 147.899658,274.178375 149.270065,273.130524 
	C148.083298,271.825806 147.101746,270.154968 145.642227,269.336792 
	C144.552612,268.725983 142.845688,269.216370 140.887680,269.216370 
	C140.887680,271.240387 140.887680,272.846832 141.029770,275.359497 
z"/>
<path fill="#36604E" opacity="1.000000" stroke="none" 
	d="
M84.977921,267.219543 
	C85.934639,266.119171 86.848557,265.034882 87.833771,264.965698 
	C90.813843,264.756409 93.831482,264.795837 96.816582,264.999969 
	C104.684471,265.537994 107.253319,270.902222 104.008286,276.114319 
	C104.918495,280.982605 106.667412,284.686890 105.952507,287.830933 
	C104.867142,292.604126 100.221367,293.156281 95.805962,293.023651 
	C92.352882,292.919891 88.894196,293.002869 84.967720,293.002869 
	C84.967720,284.260315 84.967720,275.980042 84.977921,267.219543 
M90.999199,281.616150 
	C90.999199,283.877716 90.999199,286.139252 90.999199,288.845306 
	C92.967323,288.845306 94.803917,289.340698 96.122093,288.725433 
	C97.949829,287.872314 100.433304,286.403900 100.768005,284.807373 
	C101.397545,281.804352 98.931686,280.577850 96.042946,280.661804 
	C94.562485,280.704803 93.084053,280.817627 90.999199,281.616150 
M97.067177,276.089661 
	C97.676170,274.438721 98.285156,272.787781 98.894150,271.136841 
	C96.481400,270.273682 94.068649,269.410553 91.089111,268.344635 
	C91.089111,271.690399 91.089111,273.760437 91.089111,276.243652 
	C92.950577,276.243652 94.561913,276.243652 97.067177,276.089661 
z"/>
<path fill="#345F4C" opacity="1.000000" stroke="none" 
	d="
M411.547180,281.709045 
	C409.795410,281.597565 408.497009,281.597565 406.705292,281.597565 
	C406.705292,285.403564 406.705292,288.833130 406.705292,292.626373 
	C404.504395,292.626373 402.797058,292.626373 400.922211,292.626373 
	C400.922211,283.490692 400.922211,274.398010 400.922211,264.937988 
	C404.500458,264.937988 407.940063,264.368195 411.076843,265.098663 
	C414.197388,265.825378 418.380035,267.155273 419.591766,269.509857 
	C420.887848,272.028381 419.257477,276.052917 418.877014,279.682068 
	C419.746643,283.539551 420.749756,287.989197 421.827606,292.770325 
	C419.659546,292.770325 417.887390,292.770325 416.225647,292.770325 
	C413.584076,289.449219 417.605560,283.797882 411.547180,281.709045 
M409.398773,269.059570 
	C403.450500,269.898163 407.640350,274.135803 406.328125,276.846436 
	C409.943573,277.405609 413.490997,278.238983 414.866516,274.458069 
	C416.183289,270.838593 413.349182,269.539276 409.398773,269.059570 
z"/>
<path fill="#386350" opacity="1.000000" stroke="none" 
	d="
M188.225754,265.198364 
	C197.900467,269.539001 200.465073,284.985901 192.031998,290.434875 
	C187.655579,293.262695 181.176422,292.836182 175.112518,293.980713 
	C175.112518,283.563049 175.112518,274.635620 175.112518,265.129028 
	C179.341553,265.129028 183.576523,265.129028 188.225754,265.198364 
M190.639496,283.632721 
	C190.729279,281.491638 190.999146,279.340118 190.875381,277.211456 
	C190.490814,270.597290 188.034882,268.706146 180.979126,269.605194 
	C180.979126,275.896088 180.979126,282.217499 180.979126,288.500488 
	C186.856049,289.015045 187.397812,288.758636 190.639496,283.632721 
z"/>
<path fill="#386350" opacity="1.000000" stroke="none" 
	d="
M466.433167,269.093872 
	C461.366943,268.232269 459.122833,270.468964 458.961884,274.974823 
	C458.855194,277.961121 458.741547,280.986176 459.088379,283.940186 
	C459.573212,288.069763 462.423035,289.412903 466.256927,288.922028 
	C470.609070,288.364868 469.671906,285.397400 469.139832,282.353516 
	C467.906616,282.232422 466.689026,282.345612 465.686279,281.934723 
	C464.986847,281.648071 464.112549,280.596924 464.174225,279.971832 
	C464.238800,279.316528 465.297180,278.289093 465.973999,278.245575 
	C468.931274,278.055542 471.907684,278.163818 475.517517,278.163818 
	C475.517517,281.285522 475.709290,284.083954 475.434052,286.835663 
	C475.302582,288.150208 474.583466,289.703339 473.616882,290.585907 
	C469.231812,294.589783 463.835114,293.710052 459.034485,292.221161 
	C454.816223,290.912842 452.809540,287.012054 452.963348,282.339905 
	C453.056335,279.516296 452.855713,276.677277 453.055267,273.864197 
	C453.432098,268.552277 457.169891,265.131226 462.943787,264.566223 
	C469.623260,263.912628 473.232635,266.030701 474.916656,271.622528 
	C475.003174,271.909760 474.860229,272.266083 474.805145,272.760284 
	C470.271393,275.922363 469.285553,270.810486 466.433167,269.093872 
z"/>
<path fill="#2F5C48" opacity="1.000000" stroke="none" 
	d="
M270.182495,264.876831 
	C272.640259,264.895691 274.635132,264.856506 276.624512,264.943542 
	C281.680206,265.164673 285.412292,267.650177 286.378540,272.572510 
	C287.154999,276.528107 287.357300,280.857819 286.602417,284.788818 
	C285.573486,290.147186 281.622162,292.752472 276.146667,292.928955 
	C272.841736,293.035492 269.530548,292.948578 265.581604,292.948578 
	C265.581604,284.140320 265.478210,275.568604 265.761261,267.009644 
	C265.786163,266.255737 268.338593,265.585388 270.182495,264.876831 
M281.246002,283.496155 
	C281.385620,281.346375 281.742584,279.184601 281.624695,277.049042 
	C281.250305,270.266205 278.282227,268.191162 271.457214,269.796661 
	C271.457214,276.035248 271.457214,282.285706 271.457214,288.588287 
	C275.867645,289.304871 279.415649,288.893616 281.246002,283.496155 
z"/>
<path fill="#396351" opacity="1.000000" stroke="none" 
	d="
M238.929993,289.010437 
	C240.588882,287.899780 242.890915,286.744202 242.840378,285.702820 
	C242.772903,284.312592 241.127655,282.576263 239.714355,281.766327 
	C237.156387,280.300507 234.050186,279.759064 231.565842,278.203949 
	C226.939529,275.308014 226.827698,269.989380 230.995361,266.562622 
	C236.984329,261.638336 246.921219,264.965057 249.000107,274.351898 
	C246.022552,272.717834 244.189880,271.505066 242.196884,270.679291 
	C240.371445,269.922913 238.377319,269.244202 236.448456,269.218781 
	C235.600601,269.207611 233.846481,271.461426 234.016174,271.729462 
	C234.985901,273.261200 236.204468,274.850494 237.731415,275.762177 
	C239.835281,277.018311 242.350143,277.562042 244.578445,278.639465 
	C247.943604,280.266602 249.605881,283.136932 248.876526,286.783020 
	C248.125351,290.538147 245.727417,292.973083 241.610565,293.011078 
	C238.959808,293.035553 236.179962,293.348450 233.686050,292.680481 
	C230.118317,291.724945 227.632660,289.354889 228.039963,283.499207 
	C230.271286,284.701050 231.870026,285.579224 233.484634,286.427185 
	C235.156967,287.305481 236.844666,288.154510 238.929993,289.010437 
z"/>
<path fill="#37624F" opacity="1.000000" stroke="none" 
	d="
M503.715881,282.591248 
	C502.939575,291.264282 499.770813,293.570709 489.977448,293.038757 
	C483.886261,292.707886 480.905731,289.009094 480.918732,281.822113 
	C480.928589,276.366608 480.920685,270.911102 480.920685,265.166443 
	C482.966919,265.166443 484.547638,265.166443 486.797852,265.166443 
	C486.797852,270.814117 486.862427,276.417236 486.776062,282.017975 
	C486.714417,286.016327 487.778381,289.017853 492.456238,288.973328 
	C496.942108,288.930664 497.839447,285.873230 497.834106,282.174133 
	C497.826019,276.561707 497.832001,270.949280 497.832001,265.111450 
	C499.947021,265.111450 501.531769,265.111450 503.719482,265.111450 
	C503.719482,270.913818 503.719482,276.527374 503.715881,282.591248 
z"/>
<path fill="#36624F" opacity="1.000000" stroke="none" 
	d="
M524.112183,268.827271 
	C526.746094,276.923431 529.258484,284.637207 531.853760,292.605530 
	C528.241394,293.280670 525.283936,293.895355 524.442200,288.887115 
	C524.284485,287.948395 520.689758,287.164673 518.658508,287.107269 
	C517.224609,287.066803 515.536865,288.132996 514.378540,289.169922 
	C513.680298,289.794952 513.778748,291.310089 513.455627,292.698120 
	C511.594330,292.698120 509.863190,292.698120 507.294769,292.698120 
	C508.775757,288.259857 510.163879,284.114807 511.541626,279.966278 
	C512.795044,276.192047 513.832458,272.327057 515.382690,268.679565 
	C516.023926,267.170776 517.539124,265.547180 519.034119,264.992523 
	C521.822449,263.958008 523.181702,266.051666 524.112183,268.827271 
M517.853577,277.840363 
	C517.483337,279.157593 517.113159,280.474823 516.674561,282.035400 
	C518.910583,282.035400 520.483765,282.035400 522.754639,282.035400 
	C521.743469,279.126556 520.908020,276.723236 519.811829,273.569916 
	C518.958679,275.340942 518.532776,276.225128 517.853577,277.840363 
z"/>
<path fill="#34614D" opacity="1.000000" stroke="none" 
	d="
M388.979858,269.927643 
	C391.544312,277.639282 393.961945,284.977722 396.525635,292.759521 
	C394.362671,292.867493 392.753906,292.947784 390.411285,293.064697 
	C390.829163,286.490448 386.461212,286.446899 381.926849,287.034973 
	C380.919769,287.165588 379.376923,288.263855 379.234009,289.111115 
	C378.453125,293.740112 375.494720,293.314453 371.899750,292.593048 
	C374.454224,284.910095 376.934753,277.397552 379.455322,269.898407 
	C380.274170,267.462189 380.553558,264.866333 384.347656,264.741486 
	C388.217926,264.614105 387.734680,267.613708 388.979858,269.927643 
M385.649536,277.002441 
	C385.076019,276.321106 384.502472,275.639771 383.301910,274.213593 
	C382.535645,277.363373 381.981628,279.640594 381.267883,282.574463 
	C383.768219,282.388184 385.454895,282.262543 387.512634,282.109253 
	C386.825287,280.214691 386.376282,278.977081 385.649536,277.002441 
z"/>
<path fill="#35614E" opacity="1.000000" stroke="none" 
	d="
M428.946716,292.997620 
	C427.566559,292.924194 426.591797,292.846893 424.867035,292.710083 
	C427.964264,283.792755 430.851013,275.225403 434.007233,266.758514 
	C434.353210,265.830322 436.403137,264.796234 437.386810,265.020660 
	C438.858551,265.356415 440.805023,266.489929 441.293213,267.765106 
	C443.540558,273.635345 445.358704,279.670258 447.316376,285.650848 
	C448.036499,287.850891 448.716949,290.063904 449.523560,292.612518 
	C446.317841,293.128479 443.346954,294.221527 442.589172,289.339935 
	C441.997040,285.525238 438.661163,286.971954 436.515747,287.115051 
	C434.959442,287.218933 433.347870,288.483124 432.030212,289.559570 
	C430.933960,290.455139 430.229889,291.830750 428.946716,292.997620 
M436.054474,282.504700 
	C437.305328,282.389984 438.556183,282.275238 440.429749,282.103394 
	C439.446899,278.977203 438.608246,276.309753 437.769623,273.642303 
	C437.312286,273.638123 436.854980,273.633972 436.397644,273.629822 
	C436.033783,276.557190 435.669922,279.484528 436.054474,282.504700 
z"/>
<path fill="#33604C" opacity="1.000000" stroke="none" 
	d="
M206.270691,290.353516 
	C204.527985,291.740875 202.900818,292.723083 201.273666,293.705322 
	C200.854004,293.252747 200.434326,292.800171 200.014664,292.347595 
	C202.968979,283.320496 205.923279,274.293396 208.833664,265.400452 
	C213.871826,263.620880 215.744064,265.784546 217.006607,270.341705 
	C219.071960,277.796631 221.880035,285.045776 224.425964,292.532196 
	C221.197037,293.173340 218.609482,293.877930 217.245529,289.957672 
	C216.788193,288.643219 214.655640,287.288635 213.147049,287.102722 
	C210.610352,286.790100 207.264816,285.821930 206.270691,290.353516 
M211.037079,275.746643 
	C210.299164,277.835327 209.561264,279.923981 208.716965,282.313751 
	C211.133514,282.313751 212.880432,282.313751 215.219299,282.313751 
	C214.371475,279.389587 213.648346,276.895508 212.925232,274.401428 
	C212.347473,274.619812 211.769714,274.838165 211.037079,275.746643 
z"/>
<path fill="#396351" opacity="1.000000" stroke="none" 
	d="
M350.955109,283.950592 
	C350.954163,277.490631 350.954163,271.524231 350.954163,265.138794 
	C355.938202,265.138794 360.741272,264.674988 365.404480,265.283264 
	C369.241272,265.783752 371.873474,268.460083 372.135010,272.751862 
	C372.394440,277.009735 371.010101,280.405396 366.688141,281.689087 
	C363.721130,282.570312 360.577820,282.858124 356.924591,283.517456 
	C356.924591,286.288940 356.924591,289.344543 356.924591,292.737915 
	C354.810791,292.854584 353.232849,292.941681 350.956055,293.067352 
	C350.956055,289.971222 350.956055,287.207672 350.955109,283.950592 
M358.519745,269.160767 
	C357.748962,271.967712 356.978210,274.774658 355.783997,279.123627 
	C360.156647,278.070435 362.941620,277.861023 365.164642,276.633698 
	C366.035065,276.153168 366.420837,272.508942 365.669159,271.846344 
	C364.043793,270.413605 361.541077,269.976166 358.519745,269.160767 
z"/>
<path fill="#376350" opacity="1.000000" stroke="none" 
	d="
M293.060608,281.976746 
	C293.054352,276.190186 293.054352,270.899811 293.054352,264.876129 
	C298.599915,264.876129 303.693542,264.721008 308.761475,265.012573 
	C309.725830,265.068024 310.588501,266.890320 311.498077,267.897400 
	C311.163208,268.301880 310.828339,268.706360 310.493439,269.110840 
	C306.898529,269.110840 303.303589,269.110840 299.268799,269.110840 
	C299.133545,271.446594 299.022644,273.362244 298.880615,275.815460 
	C302.213013,275.970032 305.302856,276.113342 308.917511,276.281006 
	C308.997253,277.602020 309.078125,278.942169 309.192047,280.829956 
	C305.623413,280.829956 302.550903,280.829956 299.221283,280.829956 
	C299.221283,283.604523 299.221283,285.863708 299.221283,288.316895 
	C303.167267,288.766541 307.021576,289.174988 310.848450,289.762268 
	C310.991119,289.784149 310.866608,291.547089 310.866608,292.756592 
	C305.004639,292.756592 299.407196,292.756592 293.066895,292.756592 
	C293.066895,289.308990 293.066895,285.890930 293.060608,281.976746 
z"/>
<path fill="#3B6351" opacity="1.000000" stroke="none" 
	d="
M124.838181,293.014740 
	C120.414314,293.014771 116.470947,293.014771 112.270844,293.014771 
	C112.270844,283.563782 112.270844,274.655853 112.270844,264.877319 
	C117.520927,264.877319 122.754395,264.795563 127.978813,264.976044 
	C128.667618,264.999847 129.840179,266.376740 129.821320,267.101807 
	C129.803345,267.792847 128.557785,268.976532 127.786934,269.031433 
	C124.668907,269.253510 121.525795,269.123596 118.040535,269.123596 
	C118.040535,271.514221 118.040535,273.539520 118.040535,274.960602 
	C120.767250,278.430969 127.627457,272.394409 128.180283,280.661011 
	C124.639267,280.661011 121.544243,280.661011 118.066238,280.661011 
	C118.066238,283.488617 118.066238,285.863403 118.066238,288.076996 
	C121.635574,290.645203 127.679810,285.990417 130.754730,292.707794 
	C128.228027,292.850464 126.773354,292.932587 124.838181,293.014740 
z"/>
<path fill="#386350" opacity="1.000000" stroke="none" 
	d="
M543.461548,275.184814 
	C544.656677,272.781616 546.039734,270.809937 546.677307,268.621063 
	C547.883362,264.480408 550.481628,264.294525 553.983582,265.336548 
	C551.102356,274.486633 542.802490,281.594635 545.184387,292.599121 
	C543.019043,292.599121 541.332214,292.599121 538.803162,292.599121 
	C541.766602,281.858398 533.696289,274.447479 530.506714,265.537048 
	C534.835144,263.643372 536.870850,265.745026 538.331726,268.922729 
	C539.367798,271.176514 540.269470,273.493896 541.377991,275.709473 
	C541.481567,275.916595 542.642761,275.594604 543.461548,275.184814 
z"/>
<path fill="#3C6653" opacity="1.000000" stroke="none" 
	d="
M321.978333,283.822235 
	C321.482452,287.621307 322.626434,289.225525 326.255096,288.888123 
	C329.024811,288.630554 331.837677,288.836914 334.840363,288.836914 
	C334.840363,290.329254 334.840363,291.432648 334.840363,292.782013 
	C328.874084,292.782013 322.956604,292.782013 316.650299,292.782013 
	C316.650299,283.706085 316.650299,274.657288 316.650299,265.119965 
	C318.094513,265.018280 319.660095,264.908051 321.978058,264.744843 
	C321.978058,271.223663 321.978058,277.283508 321.978333,283.822235 
z"/>
<path fill="#36604E" opacity="1.000000" stroke="none" 
	d="
M162.013260,281.976990 
	C162.013565,276.193024 162.013565,270.905548 162.013565,265.246643 
	C164.027679,265.246643 165.709869,265.246643 167.666718,265.246643 
	C167.666718,274.446381 167.666718,283.490997 167.666718,292.770569 
	C165.848511,292.770569 164.251038,292.770569 162.012955,292.770569 
	C162.012955,289.325958 162.012955,285.899719 162.013260,281.976990 
z"/>
<path fill="#F0F5ED" opacity="1.000000" stroke="none" 
	d="
M178.668762,195.403778 
	C175.153427,197.630997 171.879715,200.899551 168.417847,201.112762 
	C157.216232,201.802628 145.945511,201.370270 134.341827,201.370270 
	C134.341827,193.788513 134.341827,186.413406 134.341827,179.221619 
	C146.467224,179.221619 158.577637,178.443420 170.529160,179.486221 
	C178.956711,180.221573 181.617401,186.599380 178.668762,195.403778 
z"/>
<path fill="#F1F6EE" opacity="1.000000" stroke="none" 
	d="
M162.076477,124.835983 
	C169.596100,125.888924 172.730179,128.807968 172.936523,134.626083 
	C173.154907,140.783600 170.338577,144.647888 163.045364,145.229584 
	C153.681931,145.976379 144.213837,145.411118 134.391922,145.411118 
	C134.391922,138.742645 134.391922,131.872665 134.391922,124.767174 
	C143.517120,124.767174 152.585495,124.767174 162.076477,124.835983 
z"/>
<path fill="#F3F5F4" opacity="1.000000" stroke="none" 
	d="
M481.924774,169.014587 
	C476.816864,169.014236 472.196106,169.014236 467.299255,169.014236 
	C467.299255,157.417999 467.299255,146.207108 467.299255,133.698425 
	C476.641602,134.499847 485.870789,134.870193 494.952026,136.229019 
	C500.379395,137.041138 504.592957,143.825577 505.053955,150.284134 
	C505.562469,157.408264 502.385956,164.089310 496.403992,166.257401 
	C491.987030,167.858261 487.093292,168.143509 481.924774,169.014587 
z"/>
<path fill="#E6EDE9" opacity="1.000000" stroke="none" 
	d="
M140.887085,283.966949 
	C141.506454,278.227020 145.471176,281.045532 147.833954,281.054749 
	C148.865784,281.058777 150.991257,283.990936 150.722427,285.155243 
	C149.552078,290.224243 145.236603,288.621185 141.249207,288.776398 
	C141.121994,287.266388 141.002502,285.848083 140.887085,283.966949 
z"/>
<path fill="#E6EDE9" opacity="1.000000" stroke="none" 
	d="
M140.958725,274.906403 
	C140.887680,272.846832 140.887680,271.240387 140.887680,269.216370 
	C142.845688,269.216370 144.552612,268.725983 145.642227,269.336792 
	C147.101746,270.154968 148.083298,271.825806 149.270050,273.130524 
	C147.899658,274.178375 146.662537,275.634308 145.114960,276.139801 
	C143.961288,276.516632 142.406128,275.664368 140.958725,274.906403 
z"/>
<path fill="#E8EFEB" opacity="1.000000" stroke="none" 
	d="
M91.301956,281.257538 
	C93.084053,280.817627 94.562485,280.704803 96.042946,280.661804 
	C98.931686,280.577850 101.397545,281.804352 100.768005,284.807373 
	C100.433304,286.403900 97.949829,287.872314 96.122093,288.725433 
	C94.803917,289.340698 92.967323,288.845306 90.999199,288.845306 
	C90.999199,286.139252 90.999199,283.877716 91.301956,281.257538 
z"/>
<path fill="#E8EFEB" opacity="1.000000" stroke="none" 
	d="
M96.620209,276.166656 
	C94.561913,276.243652 92.950577,276.243652 91.089111,276.243652 
	C91.089111,273.760437 91.089111,271.690399 91.089111,268.344635 
	C94.068649,269.410553 96.481400,270.273682 98.894150,271.136841 
	C98.285156,272.787781 97.676170,274.438721 96.620209,276.166656 
z"/>
<path fill="#E1EBE5" opacity="1.000000" stroke="none" 
	d="
M409.810913,269.071472 
	C413.349182,269.539276 416.183289,270.838593 414.866516,274.458069 
	C413.490997,278.238983 409.943573,277.405609 406.328125,276.846436 
	C407.640350,274.135803 403.450500,269.898163 409.810913,269.071472 
z"/>
<path fill="#ECF2EF" opacity="1.000000" stroke="none" 
	d="
M190.435974,283.986206 
	C187.397812,288.758636 186.856049,289.015045 180.979126,288.500488 
	C180.979126,282.217499 180.979126,275.896088 180.979126,269.605194 
	C188.034882,268.706146 190.490814,270.597290 190.875381,277.211456 
	C190.999146,279.340118 190.729279,281.491638 190.435974,283.986206 
z"/>
<path fill="#E6EDE9" opacity="1.000000" stroke="none" 
	d="
M281.138550,283.886444 
	C279.415649,288.893616 275.867645,289.304871 271.457214,288.588287 
	C271.457214,282.285706 271.457214,276.035248 271.457214,269.796661 
	C278.282227,268.191162 281.250305,270.266205 281.624695,277.049042 
	C281.742584,279.184601 281.385620,281.346375 281.138550,283.886444 
z"/>
<path fill="#E1EBE5" opacity="1.000000" stroke="none" 
	d="
M517.980225,277.474823 
	C518.532776,276.225128 518.958679,275.340942 519.811829,273.569916 
	C520.908020,276.723236 521.743469,279.126556 522.754639,282.035400 
	C520.483765,282.035400 518.910583,282.035400 516.674561,282.035400 
	C517.113159,280.474823 517.483337,279.157593 517.980225,277.474823 
z"/>
<path fill="#D2E2D9" opacity="1.000000" stroke="none" 
	d="
M385.788391,277.370941 
	C386.376282,278.977081 386.825287,280.214691 387.512634,282.109253 
	C385.454895,282.262543 383.768219,282.388184 381.267883,282.574463 
	C381.981628,279.640594 382.535645,277.363373 383.301910,274.213593 
	C384.502472,275.639771 385.076019,276.321106 385.788391,277.370941 
z"/>
<path fill="#D2E2D9" opacity="1.000000" stroke="none" 
	d="
M435.680298,282.458313 
	C435.669922,279.484528 436.033783,276.557190 436.397644,273.629822 
	C436.854980,273.633972 437.312286,273.638123 437.769623,273.642303 
	C438.608246,276.309753 439.446899,278.977203 440.429749,282.103394 
	C438.556183,282.275238 437.305328,282.389984 435.680298,282.458313 
z"/>
<path fill="#C4D8CD" opacity="1.000000" stroke="none" 
	d="
M211.114502,275.401581 
	C211.769714,274.838165 212.347473,274.619812 212.925232,274.401428 
	C213.648346,276.895508 214.371475,279.389587 215.219299,282.313751 
	C212.880432,282.313751 211.133514,282.313751 208.716965,282.313751 
	C209.561264,279.923981 210.299164,277.835327 211.114502,275.401581 
z"/>
<path fill="#ECF2EF" opacity="1.000000" stroke="none" 
	d="
M358.958496,269.146179 
	C361.541077,269.976166 364.043793,270.413605 365.669159,271.846344 
	C366.420837,272.508942 366.035065,276.153168 365.164642,276.633698 
	C362.941620,277.861023 360.156647,278.070435 355.783997,279.123627 
	C356.978210,274.774658 357.748962,271.967712 358.958496,269.146179 
z"/>
</svg>